<?xml version="1.0" encoding="UTF-8"?>
<svg version="1.1" xmlns="http://www.w3.org/2000/svg" width="512" height="512">
<path d="M0 0 C0.90299332 -0.00584106 1.80598663 -0.01168213 2.73634338 -0.0177002 C5.7151466 -0.02810161 8.69093716 0.01170412 11.66943359 0.05322266 C13.74017828 0.05866568 15.81093153 0.06144624 17.88168335 0.06167603 C22.21793807 0.06940239 26.55317924 0.10036896 30.88916016 0.14941406 C36.45247654 0.21175499 42.01482267 0.2302566 47.57845497 0.2332058 C51.85240199 0.23790153 56.12614184 0.2586759 60.40000534 0.28508377 C62.45174854 0.29715944 64.50351448 0.30585376 66.55528641 0.31113815 C69.4187567 0.32232525 72.28129578 0.35343867 75.14453125 0.390625 C76.4209977 0.39094223 76.4209977 0.39094223 77.72325134 0.39126587 C83.52485645 0.49726275 83.52485645 0.49726275 85.58655357 2.19895363 C87.52686452 4.54985901 88.78312655 7.09613388 90.16552734 9.81103516 C90.46688095 10.39857071 90.76823456 10.98610626 91.07872009 11.59144592 C91.72387076 12.85086134 92.36641651 14.11161394 93.0065918 15.37356567 C94.01727574 17.36575072 95.03472622 19.35434077 96.05419922 21.34204102 C97.40847477 23.9829206 98.76071066 26.62482598 100.11132812 29.26757812 C102.359729 33.66183238 104.64066188 38.03849222 106.94287109 42.40478516 C107.51569824 43.49218994 107.51569824 43.49218994 108.10009766 44.6015625 C112.10373247 52.17975472 116.16963207 59.72471329 120.22647095 67.27450562 C125.32104932 76.7593671 130.31147743 86.29503633 135.25439453 95.85986328 C138.5824726 102.28076223 142.00556766 108.6386818 145.50537109 114.96728516 C152.1326518 126.97603156 158.3350687 139.20358737 164.56225586 151.42285156 C172.54429195 167.08010162 180.72532083 182.62427382 189.06787109 198.09228516 C195.62275835 210.27379925 201.98779765 222.54845425 208.31253052 234.85067749 C208.80050613 235.799785 208.80050613 235.799785 209.29833984 236.76806641 C209.61761444 237.38912262 209.93688904 238.01017883 210.26583862 238.65005493 C212.83684196 243.64667225 215.4430084 248.62381471 218.06787109 253.59228516 C218.43855713 254.29957764 218.80924316 255.00687012 219.19116211 255.7355957 C221.34014236 259.83238867 223.51981286 263.91040767 225.73129272 267.97387695 C227.06701688 270.43667055 228.38754679 272.90743889 229.70599365 275.3795166 C230.35882218 276.59521745 231.01812219 277.80746739 231.68414307 279.01599121 C232.61508993 280.70687909 233.52168364 282.41110524 234.42724609 284.11572266 C234.9605957 285.09976074 235.49394531 286.08379883 236.04345703 287.09765625 C236.94287109 289.84228516 236.94287109 289.84228516 236.2199707 292.54833984 C233.59544491 297.26255211 229.62894709 300.94698281 225.94287109 304.84228516 C225.40791016 305.44169922 224.87294922 306.04111328 224.32177734 306.65869141 C202.12497366 330.58511616 165.28579019 344.71653077 133.20654297 345.94726562 C91.52525245 347.04021152 52.9562453 334.65781734 22.35595703 305.70947266 C3.04104451 286.85796028 -15.4478656 259.41585148 -18.05712891 231.84228516 C-16.51911525 230.3042715 -15.08677441 230.68499036 -12.94203186 230.64801025 C-12.05479431 230.63073883 -11.16755676 230.61346741 -10.25343323 230.59567261 C-9.27220993 230.58198639 -8.29098663 230.56830017 -7.2800293 230.55419922 C-6.25231415 230.53638397 -5.224599 230.51856873 -4.16574097 230.50021362 C5.34219232 230.34545626 14.85117226 230.25826084 24.36008358 230.19021988 C30.75032947 230.1440636 37.13873964 230.07671899 43.52807617 229.95751953 C49.70211978 229.84274922 55.87451619 229.78231631 62.04956245 229.75969696 C64.39998985 229.74193988 66.75035586 229.70515318 69.10017204 229.64868927 C88.51632689 229.20427246 88.51632689 229.20427246 93.53561401 233.26330566 C96.10540754 235.84202689 97.97794357 238.78421143 99.94287109 241.84228516 C102.25263375 243.86304252 104.54351511 245.24541306 107.19287109 246.84228516 C107.76521484 247.19677734 108.33755859 247.55126953 108.92724609 247.91650391 C112.50165604 250.10176817 116.19102348 251.98537631 119.94287109 253.84228516 C113.93197129 241.76346015 107.83851178 229.72808989 101.69287109 217.71728516 C100.99756287 216.3578479 100.99756287 216.3578479 100.28820801 214.97094727 C94.77722408 204.20506162 89.21098947 193.48551949 83.34277344 182.90893555 C76.90925169 171.25944574 70.93631969 159.36344044 64.86421204 147.52313232 C61.78194762 141.51776919 58.65240114 135.53826967 55.49511719 129.57202148 C53.22827589 125.28766216 50.9786139 120.99494512 48.74365234 116.69384766 C47.92151245 115.11240967 47.92151245 115.11240967 47.08276367 113.49902344 C46.01219899 111.43822228 44.94296501 109.37672913 43.87524414 107.31445312 C43.15075073 105.92057373 43.15075073 105.92057373 42.41162109 104.49853516 C41.76870117 103.25813477 41.76870117 103.25813477 41.11279297 101.99267578 C39.88200932 99.65390639 39.88200932 99.65390639 37.94287109 96.84228516 C29.89007333 111.43921636 22.09653253 126.1550794 14.4375 140.96191406 C12.31248496 145.05713253 10.16070164 149.13796466 8.00537109 153.21728516 C1.58201955 165.38957577 -4.73002878 177.6197847 -11.05712891 189.84228516 C-24.86637451 216.5185677 -24.86637451 216.5185677 -31.1640625 228.42895508 C-33.66382123 233.16658824 -36.13324498 237.91922394 -38.58447266 242.68212891 C-39.86688226 245.17308772 -41.14937374 247.66400428 -42.43212891 250.15478516 C-42.91460587 251.09171707 -42.91460587 251.09171707 -43.40682983 252.0475769 C-48.06528152 261.08505788 -52.86042715 270.03708133 -57.77490234 278.93823242 C-61.72819991 286.13945355 -65.39832315 293.46272593 -69.03222656 300.82910156 C-80.82673171 324.61188796 -80.82673171 324.61188796 -84.05712891 327.84228516 C-87.00959245 327.93755321 -89.93861312 327.96780968 -92.89135742 327.95581055 C-93.81809265 327.95595657 -94.74482788 327.9561026 -95.699646 327.95625305 C-98.77846578 327.95555354 -101.85722588 327.94775937 -104.93603516 327.93994141 C-107.06452908 327.93807736 -109.19302344 327.9366534 -111.32151794 327.93565369 C-116.93575211 327.93182743 -122.54996059 327.92199624 -128.16418457 327.91094971 C-133.88826144 327.90073789 -139.61234244 327.89615656 -145.33642578 327.89111328 C-156.57667147 327.88037406 -167.81689806 327.86329636 -179.05712891 327.84228516 C-179.05712891 323.25299962 -177.61735266 320.50942746 -175.54150391 316.56884766 C-175.17442322 315.85711899 -174.80734253 315.14539032 -174.42913818 314.41209412 C-173.22991949 312.09284418 -172.01882648 309.78003644 -170.80712891 307.46728516 C-169.97658191 305.86783779 -169.14650589 304.26814576 -168.31689453 302.66821289 C-163.36815526 293.1480975 -158.30861613 283.69376687 -153.11914062 274.30249023 C-149.46579858 267.66892452 -146.05018005 260.93636067 -142.69262695 254.14916992 C-137.2573678 243.17144089 -131.49789864 232.36881549 -125.68994141 221.58447266 C-117.62575927 206.60364518 -109.74121709 191.54259063 -101.97349548 176.40594482 C-101.45221825 175.39023407 -101.45221825 175.39023407 -100.92041016 174.35400391 C-100.57961929 173.68991516 -100.23882843 173.02582642 -99.88771057 172.34161377 C-97.26798103 167.24140595 -94.61443888 162.15988418 -91.93212891 157.09228516 C-87.8442727 149.36610548 -83.8194659 141.60787834 -79.80712891 133.84228516 C-79.48876068 133.22617371 -79.17039246 132.61006226 -78.84237671 131.97528076 C-77.5484523 129.47113506 -76.25465946 126.96692144 -74.96104431 124.46261597 C-53.55544268 83.02534272 -53.55544268 83.02534272 -44.77587891 66.75244141 C-43.55682844 64.49088459 -42.33808966 62.22915974 -41.11962891 59.96728516 C-40.49918701 58.81599121 -39.87874512 57.66469727 -39.23950195 56.47851562 C-35.42796585 49.38087768 -31.70582084 42.24172074 -28.04541016 35.06494141 C-27.62052811 34.23263 -27.19564606 33.4003186 -26.75788879 32.54278564 C-24.66031191 28.4302766 -22.57051778 24.3140353 -20.4909668 20.19238281 C-19.71889706 18.67326509 -18.94668677 17.1542188 -18.17431641 15.63525391 C-17.66104546 14.60876488 -17.66104546 14.60876488 -17.1374054 13.5615387 C-16.15137711 11.62931788 -15.11262178 9.73735221 -14.05712891 7.84228516 C-13.57309412 6.91785315 -13.57309412 6.91785315 -13.07928085 5.97474575 C-9.6238183 0.20128153 -6.45664582 -0.15593148 0 0 Z " fill="#FEFEFE" transform="translate(218.05712890625,-0.84228515625)"/>
<path d="M0 0 C11.64844278 9.29278636 18.75912275 21.00372478 21.51953125 35.78125 C22.93571358 48.92342205 20.16198034 62.06375295 11.9921875 72.5859375 C1.35737901 84.92527976 -10.95162849 92.69534195 -27.35546875 94.21875 C-41.75965352 94.78269851 -54.33760827 89.99928762 -65.25 80.8125 C-74.73579861 71.83863337 -81.35244305 59.59658172 -82.23828125 46.46875 C-82.5438682 30.12788975 -78.17458375 17.31372826 -66.875 5.25 C-48.99922565 -11.87591102 -20.34426126 -14.34895522 0 0 Z M-51.6875 23.875 C-56.8452699 30.84495932 -58.81582626 37.34317694 -58 46 C-56.51647525 53.90794124 -53.50843621 60.90189512 -46.71484375 65.5703125 C-38.83119168 70.05694376 -32.05484202 70.83374348 -23 70 C-14.13767755 67.44402021 -8.50756409 61.51361537 -4.125 53.625 C-1.49046349 45.13593792 -1.12995453 36.97746312 -5.0390625 28.8359375 C-9.59732166 20.9839685 -15.67009036 16.74072515 -24.5 14.3125 C-35.21244509 12.97344436 -44.24491733 15.91316738 -51.6875 23.875 Z " fill="#FCFCFC" transform="translate(407,391)"/>
<path d="M0 0 C0.95149429 -0.00807175 1.90298859 -0.01614349 2.88331604 -0.02445984 C4.90681118 -0.03832697 6.93032998 -0.04903729 8.95385742 -0.05688477 C12.02244006 -0.0739739 15.08991035 -0.11782066 18.15820312 -0.16210938 C20.12629417 -0.17224699 22.09439439 -0.18075974 24.0625 -0.1875 C24.97019638 -0.20500809 25.87789276 -0.22251617 26.81309509 -0.24055481 C36.30941467 -0.20887369 43.99111451 2.86050484 50.875 9.3828125 C57.64262869 16.5423306 60.16904325 23.45960413 59.9375 33.40234375 C59.00668376 41.9564272 54.80804405 48.43490183 48.62890625 54.23828125 C45.08812299 56.87328275 44.14094527 57.23828125 39.62890625 57.23828125 C40.84838698 58.96587895 42.0679081 60.69344816 43.28759766 62.42089844 C44.35824783 63.93800875 45.42822301 65.45559563 46.49755859 66.97363281 C49.32533913 70.98592359 52.16365224 74.98980588 55.02734375 78.9765625 C55.56842773 79.73332275 56.10951172 80.49008301 56.66699219 81.26977539 C57.70517123 82.72114969 58.74733734 84.16968236 59.79394531 85.61499023 C60.26799805 86.27958252 60.74205078 86.9441748 61.23046875 87.62890625 C61.64635254 88.20672852 62.06223633 88.78455078 62.49072266 89.37988281 C63.83556232 91.57570424 64.72889679 93.83032946 65.62890625 96.23828125 C56.99821932 98.30591104 48.03414573 99.6727177 39.62890625 96.23828125 C31.14424846 89.38375065 25.72548091 78.19439078 20.59814453 68.76513672 C18.78973672 65.45045821 16.76736789 62.34936909 14.62890625 59.23828125 C14.6038501 60.32359131 14.57879395 61.40890137 14.55297852 62.52709961 C14.4590687 66.53959725 14.35880858 70.55191507 14.2565918 74.56420898 C14.21318052 76.30342413 14.17151013 78.0426836 14.1315918 79.78198242 C14.07403857 82.27666613 14.01030205 84.77112535 13.9453125 87.265625 C13.92024376 88.43906715 13.92024376 88.43906715 13.89466858 89.63621521 C13.74277796 95.12440954 13.74277796 95.12440954 12.62890625 96.23828125 C11.00633081 96.33744695 9.37950794 96.36907902 7.75390625 96.37109375 C6.7690625 96.37238281 5.78421875 96.37367188 4.76953125 96.375 C3.733125 96.37113281 2.69671875 96.36726563 1.62890625 96.36328125 C0.07429687 96.36908203 0.07429687 96.36908203 -1.51171875 96.375 C-2.4965625 96.37371094 -3.48140625 96.37242187 -4.49609375 96.37109375 C-5.40617187 96.36996582 -6.31625 96.36883789 -7.25390625 96.36767578 C-9.37109375 96.23828125 -9.37109375 96.23828125 -10.37109375 95.23828125 C-10.47167618 92.32170496 -10.50724586 89.42877179 -10.50048828 86.51171875 C-10.5022406 85.59634338 -10.50399292 84.68096802 -10.50579834 83.737854 C-10.51021836 80.69631076 -10.50727834 77.65482514 -10.50390625 74.61328125 C-10.50457925 72.50960275 -10.50554923 70.40592433 -10.50680542 68.30224609 C-10.5082826 63.88703676 -10.5061272 59.47184762 -10.50146484 55.05664062 C-10.49576755 49.38335564 -10.49904645 43.71011796 -10.50503731 38.03683472 C-10.50864239 33.69099569 -10.50750458 29.34516797 -10.50490952 24.99932861 C-10.5042401 22.90683995 -10.50506918 20.81435028 -10.50738907 18.72186279 C-10.50991473 15.80282859 -10.50607623 12.88387213 -10.50048828 9.96484375 C-10.50251251 9.09104065 -10.50453674 8.21723755 -10.50662231 7.31695557 C-10.47577666 -1.33414883 -7.7917507 0.06216248 0 0 Z M13.62890625 18.23828125 C13.62890625 26.81828125 13.62890625 35.39828125 13.62890625 44.23828125 C24.40096711 44.91936246 24.40096711 44.91936246 32.87890625 40.30078125 C35.78610185 36.87444358 35.91223824 33.63402321 35.84765625 29.234375 C35.41749315 25.30913672 33.5179534 23.01619751 30.62890625 20.48828125 C24.86135272 16.88356029 21.50615819 18.23828125 13.62890625 18.23828125 Z M12.62890625 56.23828125 C13.62890625 58.23828125 13.62890625 58.23828125 13.62890625 58.23828125 Z " fill="#FDFDFD" transform="translate(128.37109375,385.76171875)"/>
<path d="M0 0 C0.86931152 0.01047363 1.73862305 0.02094727 2.63427734 0.03173828 C3.57529297 0.03818359 4.51630859 0.04462891 5.48583984 0.05126953 C6.47068359 0.06802734 7.45552734 0.08478516 8.47021484 0.10205078 C9.46279297 0.11107422 10.45537109 0.12009766 11.47802734 0.12939453 C13.93399618 0.15300962 16.38948653 0.18594279 18.84521484 0.22705078 C24.38660427 10.95668051 29.30768374 21.8944835 34.09521484 32.97705078 C34.84615052 34.70768929 35.59729214 36.43823845 36.34863281 38.16870117 C41.05223626 49.01562734 45.70179032 59.88461682 50.28100586 70.78466797 C53.08340125 77.4542703 55.94336485 84.0948708 58.91796875 90.68969727 C60.84521484 95.01367766 60.84521484 95.01367766 60.84521484 97.22705078 C52.92521484 97.22705078 45.00521484 97.22705078 36.84521484 97.22705078 C35.52521484 94.64892578 34.20521484 92.07080078 32.84521484 89.41455078 C32.42755859 88.60655029 32.00990234 87.7985498 31.57958984 86.96606445 C31.25474609 86.32386963 30.92990234 85.6816748 30.59521484 85.02001953 C30.09248047 84.03811646 30.09248047 84.03811646 29.57958984 83.03637695 C28.84521484 81.22705078 28.84521484 81.22705078 28.84521484 78.22705078 C15.31521484 78.22705078 1.78521484 78.22705078 -12.15478516 78.22705078 C-12.81478516 80.20705078 -13.47478516 82.18705078 -14.15478516 84.22705078 C-14.98877171 86.33929709 -15.84292441 88.44369503 -16.71728516 90.53955078 C-17.15169922 91.58755859 -17.58611328 92.63556641 -18.03369141 93.71533203 C-19.15478516 96.22705078 -19.15478516 96.22705078 -20.15478516 97.22705078 C-21.93549762 97.31431301 -23.71961656 97.33404119 -25.50244141 97.32470703 C-26.58203125 97.32148438 -27.66162109 97.31826172 -28.77392578 97.31494141 C-29.91023438 97.3065625 -31.04654297 97.29818359 -32.21728516 97.28955078 C-33.35746094 97.28503906 -34.49763672 97.28052734 -35.67236328 97.27587891 C-38.49988867 97.26404826 -41.32731156 97.24756488 -44.15478516 97.22705078 C-43.49702199 93.20221104 -42.24695039 89.73315512 -40.67041016 85.97705078 C-40.41882141 85.37529526 -40.16723267 84.77353973 -39.90802002 84.15354919 C-39.07884122 82.17580221 -38.24221448 80.20131707 -37.40478516 78.22705078 C-37.11611572 77.54232697 -36.82744629 76.85760315 -36.5300293 76.15213013 C-31.86026772 65.07587506 -27.01564795 54.08617797 -22.05688477 43.13598633 C-19.15377194 36.71795311 -16.29851624 30.28496104 -13.51806641 23.81298828 C-13.21919525 23.11804764 -12.9203241 22.42310699 -12.61239624 21.70710754 C-11.16524964 18.33894304 -9.72443296 14.96823065 -8.29150391 11.59399414 C-7.77845703 10.39653564 -7.26541016 9.19907715 -6.73681641 7.96533203 C-6.28540283 6.90354736 -5.83398926 5.8417627 -5.36889648 4.74780273 C-3.24691945 0.34212951 -3.24691945 0.34212951 0 0 Z M7.84521484 29.22705078 C5.99155454 33.62266793 4.14020148 38.01924667 2.29101562 42.41674805 C1.66112173 43.91376227 1.03058906 45.41050789 0.39941406 46.90698242 C-0.50573607 49.05333922 -1.40861287 51.20063966 -2.31103516 53.34814453 C-2.59539429 54.0210704 -2.87975342 54.69399628 -3.17272949 55.38731384 C-4.56002938 58.21316667 -4.56002938 58.21316667 -5.15478516 61.22705078 C3.75521484 61.22705078 12.66521484 61.22705078 21.84521484 61.22705078 C18.69095526 53.68828453 18.69095526 53.68828453 15.53344727 46.15087891 C13.19312796 40.54584493 10.9293549 34.93247073 8.84521484 29.22705078 C8.51521484 29.22705078 8.18521484 29.22705078 7.84521484 29.22705078 Z " fill="#FDFDFD" transform="translate(55.15478515625,384.77294921875)"/>
<path d="M0 0 C20.13 0 40.26 0 61 0 C63.00277585 6.00832755 61.39506248 12.67900034 61 19 C48.79 19 36.58 19 24 19 C24 24.61 24 30.22 24 36 C26.87525391 35.98259766 26.87525391 35.98259766 29.80859375 35.96484375 C32.35156152 35.95546011 34.89453035 35.94636052 37.4375 35.9375 C39.32758789 35.92493164 39.32758789 35.92493164 41.25585938 35.91210938 C47.9289203 35.89468624 54.38768168 36.08621934 61 37 C61.02683987 39.97922593 61.04676037 42.95821295 61.0625 45.9375 C61.07087891 46.78763672 61.07925781 47.63777344 61.08789062 48.51367188 C61.09111328 49.32255859 61.09433594 50.13144531 61.09765625 50.96484375 C61.10289307 51.7137085 61.10812988 52.46257324 61.11352539 53.23413086 C61 55 61 55 60 56 C57.3337397 56.08855161 54.69352886 56.11524673 52.02734375 56.09765625 C51.22970108 56.0962413 50.43205841 56.09482635 49.61024475 56.09336853 C47.05262565 56.08775316 44.49509282 56.07519812 41.9375 56.0625 C40.20768355 56.05748698 38.47786574 56.05292373 36.74804688 56.04882812 C32.49866447 56.03777875 28.24934688 56.02050386 24 56 C24.01160156 56.68964844 24.02320313 57.37929688 24.03515625 58.08984375 C24.04417969 59.02957031 24.05320313 59.96929687 24.0625 60.9375 C24.07410156 61.85402344 24.08570313 62.77054687 24.09765625 63.71484375 C23.97489344 67.84458474 23.50549194 71.90192495 23 76 C24.145896 75.99476318 25.29179199 75.98952637 26.47241211 75.98413086 C30.70840682 75.96608283 34.94439812 75.95456872 39.18041992 75.94506836 C41.01668875 75.94002769 42.85295354 75.93319523 44.68920898 75.92456055 C47.32276401 75.91248328 49.95626616 75.90676919 52.58984375 75.90234375 C53.41588608 75.89718246 54.24192841 75.89202118 55.09300232 75.88670349 C57.06236368 75.88650795 59.03161614 75.93795848 61 76 C62.5220959 77.5220959 62.12959521 78.88210082 62.1328125 81 C62.13474609 82.2065625 62.13474609 82.2065625 62.13671875 83.4375 C62.13285156 84.283125 62.12898438 85.12875 62.125 86 C62.13080078 87.2684375 62.13080078 87.2684375 62.13671875 88.5625 C62.13542969 89.366875 62.13414062 90.17125 62.1328125 91 C62.13168457 91.7425 62.13055664 92.485 62.12939453 93.25 C62 95 62 95 61 96 C59.09756238 96.09391296 57.19161541 96.11743658 55.28686523 96.11352539 C54.04851929 96.11340454 52.81017334 96.11328369 51.53430176 96.11315918 C49.56632629 96.10548523 49.56632629 96.10548523 47.55859375 96.09765625 C46.36045044 96.09664917 45.16230713 96.09564209 43.92785645 96.09460449 C39.4310613 96.08935305 34.93427974 96.07539195 30.4375 96.0625 C20.393125 96.041875 10.34875 96.02125 0 96 C0 64.32 0 32.64 0 0 Z " fill="#FEFEFE" transform="translate(198,386)"/>
<path d="M0 0 C-0.5537478 5.10454793 -3.02592796 8.96575557 -5.5625 13.3125 C-5.98724609 14.05306641 -6.41199219 14.79363281 -6.84960938 15.55664062 C-7.89351653 17.37468118 -8.94592192 19.18783748 -10 21 C-10.57790283 20.78996338 -11.15580566 20.57992676 -11.7512207 20.36352539 C-20.18411755 17.3421452 -28.38231874 14.5529275 -37 18 C-37.85974801 20.29294488 -37.85974801 20.29294488 -38 23 C-34.62136277 27.58460973 -29.31827741 29.45734967 -24.3125 31.8125 C-17.2852558 35.2282601 -10.66463638 38.50582722 -5 44 C-4.4225 44.55042969 -3.845 45.10085938 -3.25 45.66796875 C1.65112957 50.81651111 3.61149123 56.43866959 4.375 63.4375 C3.30211591 73.6298989 -0.17942139 80.20526889 -8 87 C-19.45041678 94.54525921 -33.3514503 95.83981013 -46.60546875 93.3125 C-53.94631228 91.20759863 -60.47101261 87.92524292 -67 84 C-66.4184661 79.37416216 -64.436622 75.77705601 -62.125 71.8125 C-61.77308594 71.18408203 -61.42117188 70.55566406 -61.05859375 69.90820312 C-59.26096107 66.78406455 -58.04652966 65.03101977 -55 63 C-54.35933594 63.33773437 -53.71867187 63.67546875 -53.05859375 64.0234375 C-44.78299088 68.29073794 -37.43336266 71.06880464 -28 70 C-24.4952235 68.67014431 -24.4952235 68.67014431 -22 67 C-21.54547329 64.16089184 -21.54547329 64.16089184 -22 61 C-24.26087527 58.81913055 -24.26087527 58.81913055 -27.4375 57.1875 C-28.01008545 56.85693604 -28.5826709 56.52637207 -29.17260742 56.18579102 C-33.24772615 53.86497377 -37.42436565 51.73670899 -41.59130859 49.58691406 C-59.53051481 40.30379878 -59.53051481 40.30379878 -63.3671875 31.3515625 C-65.76283043 22.44923508 -64.37506366 14.6061291 -59.890625 6.6640625 C-46.90059557 -11.64006987 -17.53137709 -11.28865425 0 0 Z " fill="#FCFCFC" transform="translate(497,390)"/>
<path d="M0 0 C1.62215675 0.00333092 1.62215675 0.00333092 3.27708435 0.00672913 C4.49827469 0.00680466 5.71946503 0.00688019 6.97766113 0.00695801 C8.32022644 0.0120654 9.66279134 0.01728141 11.00535583 0.02259827 C12.37156116 0.02446252 13.73776716 0.02588639 15.10397339 0.02688599 C18.70596654 0.03071058 22.30791959 0.04054035 25.90989685 0.05158997 C29.58298703 0.06180536 33.25608368 0.06638388 36.92918396 0.07142639 C44.14079293 0.08216268 51.35236054 0.09975899 58.56394958 0.12025452 C58.56394958 6.39025452 58.56394958 12.66025452 58.56394958 19.12025452 C52.29394958 19.12025452 46.02394958 19.12025452 39.56394958 19.12025452 C39.56394958 44.53025452 39.56394958 69.94025452 39.56394958 96.12025452 C31.64394958 96.12025452 23.72394958 96.12025452 15.56394958 96.12025452 C15.56394958 70.71025452 15.56394958 45.30025452 15.56394958 19.12025452 C9.62394958 19.12025452 3.68394958 19.12025452 -2.43605042 19.12025452 C-4.32157571 17.23472922 -3.56851731 14.54256621 -3.57276917 12.03822327 C-3.56890198 11.24029358 -3.56503479 10.44236389 -3.56105042 9.62025452 C-3.5649176 8.82232483 -3.56878479 8.02439514 -3.57276917 7.20228577 C-3.56083961 0.17577922 -3.56083961 0.17577922 0 0 Z " fill="#FEFEFE" transform="translate(266.43605041503906,385.87974548339844)"/>
<path d="M0 0 C145.2 0 290.4 0 440 0 C440 0.33 440 0.66 440 1 C294.8 1 149.6 1 0 1 C0 0.67 0 0.34 0 0 Z " fill="#FEFEFE" transform="translate(72,511)"/>
<path d="M0 0 C20.46 0 40.92 0 62 0 C62 0.33 62 0.66 62 1 C41.54 1 21.08 1 0 1 C0 0.67 0 0.34 0 0 Z " fill="#FEFEFE" transform="translate(2,511)"/>
</svg>
